<?xml version="1.0" encoding="UTF-8" standalone="no"?>
<!DOCTYPE svg PUBLIC "-//W3C//DTD SVG 1.1//EN" "http://www.w3.org/Graphics/SVG/1.1/DTD/svg11.dtd">
<svg width="100%" height="100%" viewBox="0 0 500 500" version="1.1" xmlns="http://www.w3.org/2000/svg" xmlns:xlink="http://www.w3.org/1999/xlink" xml:space="preserve" xmlns:serif="http://www.serif.com/" style="fill-rule:evenodd;clip-rule:evenodd;stroke-linejoin:round;stroke-miterlimit:2;">
    <g transform="matrix(0.756094,0,0,0.756094,-97.3593,74.1214)">
        <path d="M300.605,28.654C300.605,34.578 299.167,43.333 296.293,54.92C293.418,66.506 289.802,79.878 285.447,95.036C281.091,110.195 276.387,126.659 271.334,144.431C266.281,162.202 261.577,180.235 257.221,198.53C252.865,216.824 249.25,234.813 246.375,252.498C243.501,270.182 242.063,286.603 242.063,301.761C242.063,314.132 242.891,325.675 244.546,336.39C246.201,347.105 248.771,356.426 252.256,364.354C255.74,372.281 260.096,378.51 265.323,383.04C270.55,387.57 276.735,389.835 283.879,389.835C291.022,389.835 297.948,387.744 304.656,383.563C311.363,379.381 317.854,373.632 324.126,366.314C330.398,358.996 336.409,350.285 342.159,340.179C347.908,330.074 353.44,319.141 358.754,307.38C364.068,295.62 369.077,283.249 373.782,270.269C378.486,257.289 382.929,244.178 387.11,230.937C401.746,184.243 414.726,131.189 426.051,71.777C428.142,62.194 430.625,54.179 433.499,47.733C436.374,41.286 439.815,36.146 443.823,32.313C447.83,28.48 452.491,25.78 457.805,24.212C463.119,22.643 469.26,21.859 476.23,21.859C482.85,21.859 488.295,22.469 492.564,23.689C496.832,24.908 500.23,26.564 502.756,28.654C505.283,30.745 507.068,33.272 508.114,36.234C509.159,39.195 509.682,42.506 509.682,46.165C509.682,47.384 508.985,52.481 507.591,61.453C506.197,70.426 504.411,81.926 502.233,95.951C500.056,109.977 497.703,125.875 495.177,143.647C492.651,161.418 490.299,179.669 488.121,198.399C485.943,217.129 484.157,235.641 482.763,253.935C481.369,272.229 480.672,289.043 480.672,304.375C480.672,320.056 481.239,334.212 482.371,346.844C483.504,359.475 485.42,370.234 488.121,379.12C490.821,388.006 494.35,394.801 498.705,399.505C503.061,404.209 508.462,406.561 514.909,406.561C526.06,406.561 536.209,402.206 545.356,393.494C554.503,384.783 562.866,373.153 570.445,358.604C578.024,344.056 584.819,327.199 590.83,308.034C596.841,288.868 602.155,268.832 606.772,247.924C611.389,227.016 615.396,205.934 618.794,184.678C622.191,163.422 625.023,143.342 627.288,124.438C629.553,105.534 631.339,88.546 632.645,73.475C633.952,58.404 634.867,46.6 635.389,38.063C635.912,29.177 637.524,22.034 640.224,16.633C642.925,11.231 646.366,7.05 650.548,4.088C654.729,1.126 659.477,-0.834 664.791,-1.792C670.105,-2.751 675.55,-3.23 681.125,-3.23C685.481,-3.23 689.445,-2.751 693.016,-1.792C696.588,-0.834 699.681,0.821 702.294,3.173C704.908,5.525 706.911,8.661 708.305,12.582C709.699,16.502 710.396,21.511 710.396,27.609C710.396,44.509 709.307,62.76 707.129,82.361C704.951,101.962 702.251,121.607 699.027,141.295C695.804,160.983 692.319,180.148 688.573,198.791C684.828,217.434 681.343,234.247 678.12,249.231C674.896,264.215 672.196,276.846 670.018,287.126C667.84,297.406 666.751,303.939 666.751,306.727C666.751,313.522 667.709,319.315 669.626,324.107C671.542,328.898 674.112,332.862 677.336,335.998C680.559,339.134 684.392,341.399 688.835,342.793C693.278,344.187 698.026,344.884 703.078,344.884C708.131,344.884 713.314,343.708 718.628,341.355C723.942,339.003 729.039,335.736 733.917,331.555C738.796,327.373 743.282,322.364 747.376,316.528C751.471,310.691 754.912,304.201 757.7,297.057L762.143,351.156C749.249,365.966 735.964,377.639 722.287,386.176C708.61,394.714 695.761,398.982 683.739,398.982C677.989,398.982 672.588,398.068 667.535,396.238C662.482,394.409 657.996,391.578 654.076,387.744C650.156,383.911 646.889,378.946 644.275,372.848C641.662,366.75 639.832,359.519 638.787,351.156C630.075,367.359 620.711,381.951 610.692,394.931C600.674,407.912 590.046,418.975 578.808,428.122C567.57,437.27 555.81,444.326 543.526,449.292C531.243,454.257 518.568,456.74 505.5,456.74C488.948,456.74 474.879,452.384 463.293,443.673C451.707,434.961 442.298,423.113 435.067,408.129C427.837,393.146 422.566,375.548 419.256,355.337C415.946,335.127 414.29,313.609 414.29,290.785C414.29,282.422 414.726,274.581 415.597,267.264C416.468,259.946 417.165,253.412 417.688,247.663C411.416,287.387 403.532,320.622 394.036,347.366C384.54,374.111 373.39,395.585 360.584,411.788C347.778,427.992 333.142,439.535 316.678,446.417C300.213,453.299 281.962,456.74 261.925,456.74C250.426,456.74 239.45,452.95 228.996,445.371C218.542,437.792 209.351,426.511 201.424,411.527C193.496,396.543 187.137,377.77 182.345,355.207C177.554,332.644 175.158,306.291 175.158,276.15C175.158,257.681 176.204,238.733 178.295,219.307C180.385,199.88 183.391,180.41 187.311,160.896C191.231,141.382 196.066,122.042 201.816,102.877C207.565,83.711 214.099,65.069 221.417,46.949C225.773,36.843 230.128,28.959 234.484,23.297C238.84,17.634 243.283,13.453 247.813,10.752C252.343,8.052 256.916,6.44 261.533,5.917C266.151,5.395 270.811,5.133 275.515,5.133C279.349,5.133 282.833,5.395 285.969,5.917C289.105,6.44 291.763,7.529 293.94,9.184C296.118,10.839 297.773,13.191 298.906,16.241C300.038,19.29 300.605,23.428 300.605,28.654Z" style="fill:rgb(149,106,61);fill-rule:nonzero;"/>
    </g>
</svg>
