<?xml version="1.0" encoding="UTF-8" standalone="no"?>
<!DOCTYPE svg PUBLIC "-//W3C//DTD SVG 1.1//EN" "http://www.w3.org/Graphics/SVG/1.1/DTD/svg11.dtd">
<svg width="100%" height="100%" viewBox="0 0 3467 495" version="1.1" xmlns="http://www.w3.org/2000/svg" xmlns:xlink="http://www.w3.org/1999/xlink" xml:space="preserve" xmlns:serif="http://www.serif.com/" style="fill-rule:evenodd;clip-rule:evenodd;stroke-linecap:round;stroke-linejoin:round;stroke-miterlimit:1.5;">
    <g transform="matrix(1,0,0,1,-17.9365,-1.95026)">
        <g transform="matrix(1.88126,0,0,1.88126,-121.561,40.564)">
            <path d="M124.798,14.575C124.798,16.966 124.217,20.501 123.057,25.179C121.896,29.857 120.436,35.255 118.678,41.375C116.919,47.495 115.02,54.142 112.98,61.317C110.94,68.492 109.041,75.773 107.282,83.159C105.524,90.545 104.064,97.808 102.904,104.947C101.743,112.087 101.163,118.717 101.163,124.837C101.163,129.831 101.497,134.491 102.165,138.817C102.833,143.143 103.871,146.907 105.278,150.107C106.685,153.308 108.443,155.823 110.553,157.651C112.664,159.48 115.161,160.395 118.045,160.395C120.929,160.395 123.725,159.551 126.433,157.862C129.141,156.174 131.762,153.853 134.294,150.899C136.826,147.944 139.253,144.427 141.574,140.347C143.896,136.267 146.129,131.853 148.275,127.105C150.42,122.357 152.442,117.363 154.342,112.122C156.241,106.882 158.035,101.588 159.723,96.242C165.632,77.391 170.872,55.971 175.444,31.985C176.288,28.116 177.291,24.88 178.451,22.277C179.612,19.675 181.001,17.599 182.619,16.052C184.237,14.504 186.119,13.414 188.264,12.781C190.41,12.148 192.889,11.831 195.703,11.831C198.376,11.831 200.574,12.078 202.298,12.57C204.021,13.062 205.393,13.731 206.413,14.575C207.433,15.419 208.154,16.439 208.576,17.635C208.998,18.83 209.209,20.167 209.209,21.644C209.209,22.137 208.927,24.194 208.365,27.817C207.802,31.439 207.081,36.082 206.202,41.745C205.322,47.407 204.373,53.826 203.353,61.001C202.333,68.176 201.383,75.544 200.504,83.106C199.625,90.668 198.904,98.142 198.341,105.528C197.778,112.914 197.497,119.702 197.497,125.892C197.497,132.223 197.725,137.938 198.183,143.038C198.64,148.138 199.414,152.481 200.504,156.069C201.594,159.656 203.019,162.4 204.777,164.299C206.536,166.198 208.716,167.148 211.319,167.148C215.821,167.148 219.918,165.389 223.611,161.872C227.304,158.355 230.681,153.659 233.741,147.786C236.801,141.912 239.544,135.107 241.971,127.369C244.398,119.631 246.543,111.542 248.407,103.101C250.271,94.66 251.889,86.148 253.261,77.566C254.632,68.985 255.776,60.878 256.69,53.246C257.604,45.613 258.325,38.755 258.853,32.67C259.381,26.586 259.75,21.82 259.961,18.373C260.172,14.786 260.823,11.902 261.913,9.721C263.003,7.54 264.392,5.852 266.081,4.656C267.769,3.461 269.686,2.669 271.831,2.282C273.977,1.895 276.175,1.702 278.426,1.702C280.184,1.702 281.785,1.895 283.227,2.282C284.669,2.669 285.917,3.338 286.972,4.287C288.028,5.237 288.836,6.503 289.399,8.086C289.962,9.668 290.243,11.691 290.243,14.153C290.243,20.976 289.804,28.344 288.924,36.258C288.045,44.171 286.955,52.102 285.653,60.051C284.352,68 282.945,75.738 281.433,83.264C279.921,90.791 278.514,97.579 277.212,103.628C275.911,109.678 274.821,114.778 273.941,118.928C273.062,123.078 272.623,125.716 272.623,126.841C272.623,129.585 273.009,131.924 273.783,133.858C274.557,135.792 275.595,137.393 276.896,138.659C278.197,139.925 279.745,140.84 281.538,141.402C283.332,141.965 285.249,142.246 287.289,142.246C289.329,142.246 291.422,141.772 293.567,140.822C295.712,139.872 297.77,138.553 299.74,136.865C301.709,135.177 303.52,133.155 305.174,130.798C306.827,128.442 308.216,125.821 309.341,122.937L311.135,144.779C305.93,150.758 300.566,155.471 295.044,158.918C289.522,162.364 284.335,164.088 279.481,164.088C277.16,164.088 274.979,163.718 272.939,162.98C270.899,162.241 269.088,161.098 267.505,159.551C265.922,158.003 264.603,155.998 263.548,153.536C262.493,151.074 261.755,148.155 261.333,144.779C257.815,151.321 254.035,157.212 249.99,162.452C245.945,167.693 241.654,172.16 237.117,175.853C232.58,179.546 227.832,182.394 222.873,184.399C217.914,186.404 212.796,187.406 207.521,187.406C200.838,187.406 195.158,185.648 190.48,182.131C185.802,178.614 182.004,173.83 179.085,167.781C176.165,161.731 174.037,154.627 172.701,146.467C171.364,138.307 170.696,129.62 170.696,120.405C170.696,117.029 170.872,113.863 171.224,110.909C171.575,107.954 171.857,105.317 172.068,102.995C169.536,119.033 166.353,132.451 162.519,143.249C158.685,154.046 154.183,162.716 149.013,169.258C143.843,175.8 137.934,180.46 131.287,183.239C124.639,186.017 117.271,187.406 109.182,187.406C104.539,187.406 100.107,185.876 95.887,182.816C91.666,179.757 87.956,175.202 84.755,169.152C81.555,163.103 78.987,155.524 77.053,146.414C75.118,137.305 74.151,126.666 74.151,114.496C74.151,107.04 74.573,99.39 75.417,91.547C76.261,83.704 77.475,75.843 79.057,67.965C80.64,60.086 82.592,52.278 84.914,44.541C87.235,36.803 89.873,29.276 92.827,21.961C94.586,17.881 96.344,14.698 98.103,12.412C99.861,10.126 101.655,8.437 103.484,7.347C105.313,6.257 107.159,5.606 109.023,5.395C110.887,5.184 112.769,5.078 114.668,5.078C116.216,5.078 117.623,5.184 118.889,5.395C120.155,5.606 121.228,6.046 122.107,6.714C122.986,7.382 123.655,8.332 124.112,9.563C124.569,10.794 124.798,12.464 124.798,14.575Z" style="fill:rgb(169,120,69);fill-rule:nonzero;"/>
            <path d="M410.635,151.426C409.017,153.677 406.854,156.315 404.145,159.34C401.437,162.364 398.395,165.248 395.019,167.992C391.642,170.735 388.019,173.056 384.151,174.956C380.282,176.855 376.413,177.805 372.544,177.805C367.901,177.805 364.033,176.31 360.938,173.32C357.843,170.331 355.169,165.987 352.919,160.289C351.23,162.259 349.155,164.264 346.693,166.304C344.231,168.343 341.541,170.19 338.621,171.843C335.702,173.496 332.66,174.85 329.494,175.905C326.329,176.96 323.164,177.488 319.998,177.488C316.622,177.488 313.333,176.802 310.133,175.431C306.932,174.059 304.101,172.089 301.639,169.522C299.177,166.954 297.207,163.824 295.73,160.131C294.253,156.438 293.514,152.27 293.514,147.628C293.514,142.352 294.253,136.936 295.73,131.378C297.207,125.821 299.247,120.387 301.85,115.077C304.453,109.766 307.53,104.754 311.082,100.041C314.635,95.328 318.521,91.213 322.742,87.696C326.962,84.179 331.411,81.383 336.089,79.307C340.767,77.232 345.533,76.195 350.386,76.195C352.004,76.195 353.27,76.511 354.185,77.144C355.099,77.777 355.855,78.499 356.453,79.307C357.051,80.116 357.631,80.908 358.194,81.682C358.757,82.455 359.46,83.018 360.305,83.37C361.149,83.721 362.01,83.95 362.89,84.056C363.769,84.161 364.666,84.214 365.58,84.214C366.354,84.214 367.145,84.196 367.954,84.161C368.763,84.126 369.555,84.108 370.328,84.108C371.383,84.108 372.368,84.214 373.283,84.425C374.197,84.636 375.006,85.093 375.71,85.797C376.413,86.5 376.958,87.485 377.345,88.751C377.732,90.017 377.925,91.74 377.925,93.921C377.925,97.298 377.574,101.043 376.87,105.158C376.167,109.273 375.393,113.494 374.549,117.82C373.705,122.146 372.931,126.472 372.228,130.798C371.524,135.124 371.172,139.222 371.172,143.091C371.172,146.397 371.471,148.982 372.069,150.846C372.667,152.71 373.951,153.642 375.921,153.642C377.398,153.642 378.945,153.273 380.563,152.534C382.181,151.795 383.816,150.828 385.47,149.632C387.123,148.437 388.776,147.082 390.429,145.57C392.082,144.058 393.647,142.493 395.124,140.875C398.571,137.076 402.053,132.785 405.57,128.002L410.635,151.426ZM320.526,143.091C320.526,144.849 320.649,146.555 320.895,148.208C321.141,149.861 321.581,151.338 322.214,152.64C322.847,153.941 323.691,154.996 324.746,155.805C325.801,156.614 327.138,157.018 328.756,157.018C331.359,157.018 333.715,155.893 335.825,153.642C337.936,151.391 339.764,148.683 341.312,145.517C342.86,142.352 344.108,139.081 345.058,135.705C346.007,132.328 346.623,129.514 346.904,127.263L353.341,96.242C350.457,96.242 347.643,96.963 344.899,98.405C342.156,99.847 339.571,101.799 337.144,104.261C334.717,106.723 332.484,109.537 330.444,112.703C328.404,115.868 326.646,119.192 325.168,122.674C323.691,126.156 322.548,129.655 321.739,133.172C320.93,136.689 320.526,139.995 320.526,143.091Z" style="fill:rgb(169,120,69);fill-rule:nonzero;"/>
            <path d="M398.184,155.225C398.184,150.582 398.465,145.218 399.028,139.134C399.591,133.049 400.294,126.859 401.138,120.563C401.982,114.268 402.932,108.201 403.987,102.362C405.042,96.524 406.062,91.529 407.047,87.379C407.821,84.143 409.316,81.435 411.531,79.255C413.747,77.074 416.754,75.984 420.553,75.984C424.351,75.984 426.989,77.144 428.466,79.466C429.944,81.787 430.682,84.882 430.682,88.751C430.682,89.806 430.577,91.23 430.366,93.024C430.155,94.818 429.891,96.788 429.574,98.933C429.258,101.078 428.924,103.294 428.572,105.58C428.22,107.867 427.886,109.977 427.57,111.911C427.253,113.846 426.989,115.534 426.778,116.976C426.567,118.418 426.462,119.385 426.462,119.877L428.572,119.877C428.994,119.104 429.662,117.855 430.577,116.132C431.491,114.408 432.546,112.421 433.742,110.17C434.938,107.919 436.222,105.545 437.593,103.048C438.965,100.551 440.249,98.159 441.445,95.873C442.64,93.587 443.731,91.565 444.716,89.806C445.7,88.047 446.439,86.746 446.931,85.902C449.182,82.104 451.75,79.501 454.634,78.094C457.518,76.687 460.718,75.984 464.236,75.984C467.753,75.984 470.549,77.461 472.624,80.415C474.699,83.37 475.737,87.45 475.737,92.655C475.737,93.429 475.578,94.73 475.262,96.559C474.945,98.388 474.541,100.568 474.048,103.101C473.556,105.633 473.011,108.412 472.413,111.436C471.815,114.461 471.27,117.556 470.777,120.722C470.285,123.887 469.881,127.017 469.564,130.112C469.247,133.207 469.089,136.056 469.089,138.659C469.089,143.02 469.634,146.608 470.725,149.421C471.815,152.235 473.521,153.642 475.842,153.642C476.897,153.642 478.111,153.325 479.482,152.692C480.854,152.059 482.331,151.233 483.914,150.213C485.497,149.193 487.114,148.015 488.768,146.678C490.421,145.341 492.056,143.97 493.674,142.563C497.402,139.257 501.306,135.529 505.386,131.378L507.18,155.014L501.904,159.023C499.02,161.204 496.083,163.384 493.094,165.565C490.104,167.746 486.991,169.698 483.756,171.421C480.52,173.144 477.143,174.551 473.626,175.642C470.109,176.732 466.416,177.277 462.547,177.277C458.679,177.277 455.425,174.481 452.787,168.889C450.149,163.296 448.831,155.119 448.831,144.357C448.831,140.136 449.112,135.581 449.675,130.693C450.237,125.804 450.941,120.546 451.785,114.918L450.097,114.918L422.452,169.786C421.045,172.67 419.463,174.639 417.704,175.694C415.945,176.749 413.906,177.277 411.584,177.277C408.7,177.277 406.379,176.661 404.62,175.431C402.862,174.2 401.508,172.546 400.558,170.471C399.608,168.396 398.975,166.04 398.659,163.402C398.342,160.764 398.184,158.038 398.184,155.225Z" style="fill:rgb(169,120,69);fill-rule:nonzero;"/>
            <path d="M495.995,155.225C495.995,150.582 496.277,145.218 496.839,139.134C497.402,133.049 498.106,126.859 498.95,120.563C499.794,114.268 500.743,108.201 501.798,102.362C502.854,96.524 503.874,91.529 504.858,87.379C505.632,84.143 507.127,81.435 509.343,79.255C511.559,77.074 514.566,75.984 518.364,75.984C522.163,75.984 524.801,77.144 526.278,79.466C527.755,81.787 528.493,84.882 528.493,88.751C528.493,89.806 528.388,91.23 528.177,93.024C527.966,94.818 527.702,96.788 527.386,98.933C527.069,101.078 526.735,103.294 526.383,105.58C526.031,107.867 525.697,109.977 525.381,111.911C525.064,113.846 524.801,115.534 524.589,116.976C524.378,118.418 524.273,119.385 524.273,119.877L526.383,119.877C526.805,119.104 527.474,117.855 528.388,116.132C529.302,114.408 530.358,112.421 531.553,110.17C532.749,107.919 534.033,105.545 535.405,103.048C536.776,100.551 538.06,98.159 539.256,95.873C540.452,93.587 541.542,91.565 542.527,89.806C543.512,88.047 544.25,86.746 544.743,85.902C546.994,82.104 549.561,79.501 552.445,78.094C555.329,76.687 558.53,75.984 562.047,75.984C565.564,75.984 568.36,77.461 570.435,80.415C572.51,83.37 573.548,87.45 573.548,92.655C573.548,93.429 573.39,94.73 573.073,96.559C572.757,98.388 572.352,100.568 571.86,103.101C571.367,105.633 570.822,108.412 570.224,111.436C569.626,114.461 569.081,117.556 568.589,120.722C568.096,123.887 567.692,127.017 567.375,130.112C567.059,133.207 566.901,136.056 566.901,138.659C566.901,143.02 567.446,146.608 568.536,149.421C569.626,152.235 571.332,153.642 573.653,153.642C574.709,153.642 575.922,153.325 577.294,152.692C578.665,152.059 580.142,151.233 581.725,150.213C583.308,149.193 584.926,148.015 586.579,146.678C588.232,145.341 589.867,143.97 591.485,142.563C595.213,139.257 599.117,135.529 603.197,131.378L604.991,155.014L599.715,159.023C596.831,161.204 593.894,163.384 590.905,165.565C587.915,167.746 584.803,169.698 581.567,171.421C578.331,173.144 574.955,174.551 571.438,175.642C567.92,176.732 564.227,177.277 560.359,177.277C556.49,177.277 553.236,174.481 550.599,168.889C547.961,163.296 546.642,155.119 546.642,144.357C546.642,140.136 546.923,135.581 547.486,130.693C548.049,125.804 548.752,120.546 549.596,114.918L547.908,114.918L520.263,169.786C518.857,172.67 517.274,174.639 515.515,175.694C513.757,176.749 511.717,177.277 509.395,177.277C506.511,177.277 504.19,176.661 502.432,175.431C500.673,174.2 499.319,172.546 498.369,170.471C497.42,168.396 496.787,166.04 496.47,163.402C496.154,160.764 495.995,158.038 495.995,155.225Z" style="fill:rgb(169,120,69);fill-rule:nonzero;"/>
            <path d="M704.174,151.426C702.556,153.677 700.393,156.315 697.685,159.34C694.977,162.364 691.934,165.248 688.558,167.992C685.181,170.735 681.559,173.056 677.69,174.956C673.821,176.855 669.952,177.805 666.083,177.805C661.441,177.805 657.572,176.31 654.477,173.32C651.382,170.331 648.709,165.987 646.458,160.289C644.77,162.259 642.695,164.264 640.233,166.304C637.771,168.343 635.08,170.19 632.161,171.843C629.242,173.496 626.199,174.85 623.034,175.905C619.868,176.96 616.703,177.488 613.538,177.488C610.161,177.488 606.873,176.802 603.672,175.431C600.471,174.059 597.64,172.089 595.178,169.522C592.716,166.954 590.747,163.824 589.269,160.131C587.792,156.438 587.054,152.27 587.054,147.628C587.054,142.352 587.792,136.936 589.269,131.378C590.747,125.821 592.787,120.387 595.389,115.077C597.992,109.766 601.069,104.754 604.622,100.041C608.174,95.328 612.06,91.213 616.281,87.696C620.502,84.179 624.951,81.383 629.628,79.307C634.306,77.232 639.072,76.195 643.926,76.195C645.543,76.195 646.81,76.511 647.724,77.144C648.639,77.777 649.395,78.499 649.993,79.307C650.591,80.116 651.171,80.908 651.734,81.682C652.296,82.455 653,83.018 653.844,83.37C654.688,83.721 655.55,83.95 656.429,84.056C657.308,84.161 658.205,84.214 659.12,84.214C659.893,84.214 660.685,84.196 661.494,84.161C662.303,84.126 663.094,84.108 663.868,84.108C664.923,84.108 665.908,84.214 666.822,84.425C667.737,84.636 668.545,85.093 669.249,85.797C669.952,86.5 670.497,87.485 670.884,88.751C671.271,90.017 671.465,91.74 671.465,93.921C671.465,97.298 671.113,101.043 670.41,105.158C669.706,109.273 668.932,113.494 668.088,117.82C667.244,122.146 666.47,126.472 665.767,130.798C665.064,135.124 664.712,139.222 664.712,143.091C664.712,146.397 665.011,148.982 665.609,150.846C666.207,152.71 667.49,153.642 669.46,153.642C670.937,153.642 672.485,153.273 674.103,152.534C675.72,151.795 677.356,150.828 679.009,149.632C680.662,148.437 682.315,147.082 683.968,145.57C685.621,144.058 687.186,142.493 688.663,140.875C692.11,137.076 695.592,132.785 699.109,128.002L704.174,151.426ZM614.065,143.091C614.065,144.849 614.188,146.555 614.434,148.208C614.681,149.861 615.12,151.338 615.753,152.64C616.386,153.941 617.231,154.996 618.286,155.805C619.341,156.614 620.677,157.018 622.295,157.018C624.898,157.018 627.254,155.893 629.365,153.642C631.475,151.391 633.304,148.683 634.851,145.517C636.399,142.352 637.648,139.081 638.597,135.705C639.547,132.328 640.162,129.514 640.444,127.263L646.88,96.242C643.996,96.242 641.182,96.963 638.439,98.405C635.695,99.847 633.11,101.799 630.684,104.261C628.257,106.723 626.023,109.537 623.983,112.703C621.944,115.868 620.185,119.192 618.708,122.674C617.231,126.156 616.088,129.655 615.279,133.172C614.47,136.689 614.065,139.995 614.065,143.091Z" style="fill:rgb(169,120,69);fill-rule:nonzero;"/>
            <path d="M864.555,141.613C861.108,143.091 857.767,145.043 854.531,147.469C851.295,149.896 848.024,152.552 844.718,155.436C841.412,158.32 837.983,161.362 834.431,164.563C830.878,167.763 827.045,170.929 822.93,174.059C818.815,177.189 814.33,180.179 809.477,183.027C804.623,185.876 799.259,188.374 793.386,190.519C787.512,192.664 781.041,194.37 773.971,195.636C766.902,196.903 759.076,197.536 750.495,197.536C740.998,197.536 732.434,195.619 724.802,191.785C717.17,187.951 710.645,182.781 705.229,176.275C699.813,169.768 695.645,162.206 692.726,153.589C689.806,144.972 688.347,135.916 688.347,126.419C688.347,119.948 689.05,113.002 690.457,105.58C691.864,98.159 693.886,90.597 696.524,82.895C699.162,75.192 702.38,67.507 706.179,59.84C709.977,52.173 714.286,44.822 719.104,37.788C723.923,30.754 729.216,24.229 734.984,18.215C740.752,12.201 746.907,6.96 753.449,2.493C759.991,-1.973 766.884,-5.473 774.13,-8.005C781.375,-10.538 788.902,-11.804 796.71,-11.804C801.774,-11.804 806.909,-10.907 812.115,-9.113C817.32,-7.319 821.998,-4.558 826.148,-0.83C830.298,2.898 833.692,7.611 836.33,13.309C838.968,19.006 840.287,25.724 840.287,33.462C840.287,38.667 839.46,43.925 837.807,49.236C836.154,54.547 833.886,59.647 831.002,64.536C828.117,69.424 824.723,74.014 820.819,78.305C816.915,82.596 812.712,86.307 808.211,89.437C803.709,92.567 799.031,95.047 794.177,96.875C789.324,98.704 784.47,99.619 779.616,99.619C773.215,99.619 768.432,98.757 765.266,97.034C762.101,95.31 760.518,92.831 760.518,89.595C760.518,89.032 760.501,88.364 760.466,87.59C760.43,86.817 760.413,86.008 760.413,85.163C760.413,83.897 760.483,82.578 760.624,81.207C760.765,79.835 761.046,78.586 761.468,77.461C761.89,76.335 762.505,75.421 763.314,74.718C764.123,74.014 765.231,73.662 766.638,73.662C767.482,73.662 768.221,73.786 768.854,74.032C769.487,74.278 770.19,74.542 770.964,74.823C771.738,75.104 772.67,75.368 773.76,75.614C774.851,75.861 776.24,75.984 777.928,75.984C782.43,75.984 786.985,74.999 791.592,73.029C796.2,71.06 800.35,68.281 804.043,64.694C807.736,61.106 810.76,56.833 813.117,51.874C815.473,46.915 816.652,41.446 816.652,35.466C816.652,32.301 816.23,29.294 815.385,26.445C814.541,23.596 813.17,21.099 811.27,18.954C809.371,16.808 806.927,15.085 803.937,13.783C800.948,12.482 797.307,11.831 793.017,11.831C787.952,11.831 783.01,12.939 778.192,15.155C773.373,17.371 768.748,20.378 764.317,24.176C759.885,27.975 755.682,32.477 751.708,37.682C747.734,42.888 744.058,48.462 740.682,54.406C737.305,60.35 734.263,66.54 731.555,72.977C728.847,79.413 726.543,85.832 724.644,92.233C722.744,98.634 721.285,104.842 720.265,110.856C719.245,116.87 718.735,122.41 718.735,127.474C718.735,134.72 719.632,141.033 721.425,146.414C723.219,151.795 725.769,156.28 729.075,159.867C732.381,163.455 736.426,166.128 741.209,167.886C745.993,169.645 751.374,170.524 757.353,170.524C764.809,170.524 771.756,169.592 778.192,167.728C784.628,165.864 790.766,163.42 796.604,160.395C802.442,157.37 808.087,153.958 813.539,150.16C818.991,146.361 824.442,142.545 829.894,138.712C835.345,134.878 840.902,131.22 846.565,127.738C852.227,124.256 858.224,121.32 864.555,118.928L864.555,141.613Z" style="fill:rgb(169,120,69);fill-rule:nonzero;"/>
            <path d="M908.449,98.247C910.489,102.327 912.019,106.636 913.038,111.173C914.058,115.71 914.568,120.053 914.568,124.204C914.568,128.354 914.111,132.539 913.197,136.76C912.282,140.98 910.963,145.06 909.24,148.999C907.517,152.938 905.406,156.631 902.909,160.078C900.412,163.525 897.563,166.515 894.363,169.047C891.162,171.579 887.662,173.584 883.864,175.061C880.065,176.538 876.021,177.277 871.73,177.277C865.54,177.277 860.246,175.923 855.85,173.215C851.454,170.507 847.849,166.972 845.035,162.611C842.221,158.249 840.164,153.325 838.862,147.839C837.561,142.352 836.91,136.795 836.91,131.167C836.91,123.43 838.071,116.202 840.392,109.484C842.714,102.767 846.037,96.928 850.363,91.969C854.689,87.01 859.983,83.106 866.243,80.257C872.504,77.408 879.538,75.984 887.346,75.984C894.028,75.984 900.289,77.021 906.127,79.096C911.966,81.172 917.435,83.95 922.535,87.432C927.635,90.914 932.383,94.906 936.779,99.408C941.176,103.91 945.273,108.552 949.071,113.336L947.067,128.213C945.167,125.681 942.6,122.937 939.364,119.983C936.128,117.029 932.699,114.145 929.077,111.331C925.454,108.517 921.884,105.862 918.367,103.365C914.85,100.867 911.825,98.775 909.293,97.087L908.449,98.247ZM875.845,157.018C878.237,157.018 880.558,155.805 882.809,153.378C885.06,150.951 887.029,147.891 888.718,144.198C890.406,140.505 891.76,136.426 892.78,131.959C893.8,127.492 894.31,123.219 894.31,119.139C894.31,115.903 894.064,112.896 893.571,110.117C893.079,107.339 892.34,104.93 891.355,102.89C890.371,100.85 889.104,99.232 887.557,98.036C886.009,96.84 884.145,96.242 881.965,96.242C879.081,96.242 876.337,97.473 873.735,99.935C871.132,102.397 868.846,105.545 866.876,109.379C864.907,113.213 863.359,117.451 862.234,122.093C861.108,126.736 860.545,131.203 860.545,135.494C860.545,138.448 860.827,141.226 861.389,143.829C861.952,146.432 862.832,148.7 864.027,150.635C865.223,152.569 866.806,154.117 868.775,155.277C870.745,156.438 873.102,157.018 875.845,157.018Z" style="fill:rgb(169,120,69);fill-rule:nonzero;"/>
            <path d="M929.446,181.287C929.446,180.935 929.534,178.789 929.71,174.85C929.886,170.911 930.22,165.67 930.712,159.129C931.204,152.587 931.873,145.043 932.717,136.496C933.561,127.949 934.669,118.91 936.041,109.379C937.412,99.847 939.03,90.07 940.894,80.046C942.758,70.022 944.974,60.262 947.542,50.766C950.109,41.27 953.046,32.319 956.352,23.913C959.658,15.507 963.369,8.156 967.484,1.86C971.599,-4.435 976.189,-9.412 981.253,-13.07C986.318,-16.728 991.875,-18.557 997.924,-18.557C1000.32,-18.557 1002.83,-18.135 1005.47,-17.29C1008.11,-16.446 1010.52,-15.075 1012.7,-13.175C1014.88,-11.276 1016.69,-8.761 1018.13,-5.631C1019.57,-2.501 1020.29,1.35 1020.29,5.923C1020.29,10.073 1019.64,14.839 1018.34,20.22C1017.04,25.601 1015.21,31.351 1012.86,37.471C1010.5,43.591 1007.72,49.957 1004.52,56.569C1001.32,63.181 997.819,69.776 994.02,76.353C990.222,82.93 986.23,89.402 982.045,95.768C977.859,102.134 973.586,108.095 969.225,113.652L969.014,115.34C970.42,114.637 971.476,114.18 972.179,113.969C972.882,113.758 973.621,113.652 974.395,113.652C975.309,113.652 976.048,113.74 976.611,113.916C977.173,114.092 977.683,114.285 978.141,114.496C978.598,114.707 979.073,114.901 979.565,115.077C980.057,115.252 980.655,115.34 981.359,115.34C988.323,115.34 994.478,114.514 999.824,112.861C1005.17,111.208 1009.67,109.361 1013.33,107.321C1017.62,105 1021.35,102.292 1024.51,99.197L1022.19,124.837C1017.55,127.369 1012.7,129.339 1007.63,130.745C1002.57,132.152 997.889,133.207 993.598,133.911C988.604,134.685 983.645,135.177 978.721,135.388C981.253,140.031 983.539,144.849 985.579,149.843C987.338,154.134 988.938,158.935 990.38,164.246C991.822,169.557 992.543,174.921 992.543,180.337C992.543,180.97 992.455,182.306 992.279,184.346C992.104,186.386 991.805,188.884 991.382,191.838C990.96,194.792 990.363,198.063 989.589,201.651C988.815,205.238 987.813,208.861 986.582,212.519C985.351,216.176 983.856,219.711 982.097,223.123C980.339,226.534 978.281,229.559 975.925,232.197C973.568,234.835 970.86,236.963 967.8,238.581C964.74,240.198 961.276,241.007 957.407,241.007C953.538,241.007 950.162,240.128 947.278,238.369C944.394,236.611 941.932,234.237 939.892,231.247C937.852,228.258 936.146,224.776 934.774,220.801C933.403,216.827 932.33,212.624 931.556,208.193C930.782,203.761 930.237,199.241 929.921,194.634C929.604,190.027 929.446,185.577 929.446,181.287ZM957.618,130.64C957.337,130.64 957.02,131.431 956.668,133.014C956.317,134.597 955.983,136.637 955.666,139.134C955.35,141.631 955.051,144.427 954.769,147.522C954.488,150.617 954.242,153.659 954.031,156.649C953.82,159.639 953.644,162.417 953.503,164.985C953.362,167.552 953.292,169.574 953.292,171.052C953.292,181.392 953.485,189.622 953.872,195.742C954.259,201.862 954.752,206.504 955.35,209.67C955.947,212.835 956.616,214.893 957.354,215.842C958.093,216.792 958.849,217.267 959.623,217.267C962.014,217.267 963.931,216.176 965.373,213.996C966.815,211.815 967.906,209.054 968.644,205.713C969.383,202.372 969.875,198.714 970.121,194.74C970.368,190.765 970.491,186.949 970.491,183.291C970.491,180.829 970.297,177.805 969.91,174.217C969.524,170.63 968.996,166.884 968.328,162.98C967.659,159.076 966.886,155.189 966.006,151.321C965.127,147.452 964.213,143.987 963.263,140.927C962.313,137.868 961.346,135.388 960.361,133.489C959.377,131.59 958.462,130.64 957.618,130.64ZM983.258,15.524C979.178,25.654 975.977,34.57 973.656,42.272C971.335,49.975 969.576,56.815 968.38,62.795C967.185,68.774 966.341,74.032 965.848,78.569C965.356,83.106 964.863,87.309 964.371,91.178C968.662,83.088 972.988,75.122 977.349,67.279C981.71,59.436 985.65,52.155 989.167,45.438C992.684,38.72 995.55,32.793 997.766,27.658C999.982,22.523 1001.09,18.619 1001.09,15.946C1001.09,12.218 1000.56,9.492 999.507,7.769C998.452,6.046 997.01,5.184 995.181,5.184C991.945,5.184 989.483,6.046 987.795,7.769C986.107,9.492 984.594,12.078 983.258,15.524Z" style="fill:rgb(169,120,69);fill-rule:nonzero;"/>
            <path d="M1005.73,181.287C1005.73,180.935 1005.82,178.789 1006,174.85C1006.17,170.911 1006.51,165.67 1007,159.129C1007.49,152.587 1008.16,145.043 1009,136.496C1009.85,127.949 1010.96,118.91 1012.33,109.379C1013.7,99.847 1015.32,90.07 1017.18,80.046C1019.05,70.022 1021.26,60.262 1023.83,50.766C1026.39,41.27 1029.33,32.319 1032.64,23.913C1035.94,15.507 1039.65,8.156 1043.77,1.86C1047.88,-4.435 1052.47,-9.412 1057.54,-13.07C1062.6,-16.728 1068.16,-18.557 1074.21,-18.557C1076.6,-18.557 1079.12,-18.135 1081.76,-17.29C1084.39,-16.446 1086.8,-15.075 1088.98,-13.175C1091.16,-11.276 1092.98,-8.761 1094.42,-5.631C1095.86,-2.501 1096.58,1.35 1096.58,5.923C1096.58,10.073 1095.93,14.839 1094.63,20.22C1093.33,25.601 1091.5,31.351 1089.14,37.471C1086.79,43.591 1084.01,49.957 1080.81,56.569C1077.61,63.181 1074.11,69.776 1070.31,76.353C1066.51,82.93 1062.52,89.402 1058.33,95.768C1054.15,102.134 1049.87,108.095 1045.51,113.652L1045.3,115.34C1046.71,114.637 1047.76,114.18 1048.46,113.969C1049.17,113.758 1049.91,113.652 1050.68,113.652C1051.6,113.652 1052.33,113.74 1052.9,113.916C1053.46,114.092 1053.97,114.285 1054.43,114.496C1054.88,114.707 1055.36,114.901 1055.85,115.077C1056.34,115.252 1056.94,115.34 1057.64,115.34C1064.61,115.34 1070.76,114.514 1076.11,112.861C1081.46,111.208 1085.96,109.361 1089.62,107.321C1093.91,105 1097.63,102.292 1100.8,99.197L1098.48,124.837C1093.84,127.369 1088.98,129.339 1083.92,130.745C1078.85,132.152 1074.18,133.207 1069.88,133.911C1064.89,134.685 1059.93,135.177 1055.01,135.388C1057.54,140.031 1059.83,144.849 1061.87,149.843C1063.62,154.134 1065.22,158.935 1066.67,164.246C1068.11,169.557 1068.83,174.921 1068.83,180.337C1068.83,180.97 1068.74,182.306 1068.57,184.346C1068.39,186.386 1068.09,188.884 1067.67,191.838C1067.25,194.792 1066.65,198.063 1065.88,201.651C1065.1,205.238 1064.1,208.861 1062.87,212.519C1061.64,216.176 1060.14,219.711 1058.38,223.123C1056.62,226.534 1054.57,229.559 1052.21,232.197C1049.86,234.835 1047.15,236.963 1044.09,238.581C1041.03,240.198 1037.56,241.007 1033.69,241.007C1029.83,241.007 1026.45,240.128 1023.56,238.369C1020.68,236.611 1018.22,234.237 1016.18,231.247C1014.14,228.258 1012.43,224.776 1011.06,220.801C1009.69,216.827 1008.62,212.624 1007.84,208.193C1007.07,203.761 1006.52,199.241 1006.21,194.634C1005.89,190.027 1005.73,185.577 1005.73,181.287ZM1033.9,130.64C1033.62,130.64 1033.31,131.431 1032.95,133.014C1032.6,134.597 1032.27,136.637 1031.95,139.134C1031.64,141.631 1031.34,144.427 1031.06,147.522C1030.77,150.617 1030.53,153.659 1030.32,156.649C1030.11,159.639 1029.93,162.417 1029.79,164.985C1029.65,167.552 1029.58,169.574 1029.58,171.052C1029.58,181.392 1029.77,189.622 1030.16,195.742C1030.55,201.862 1031.04,206.504 1031.64,209.67C1032.23,212.835 1032.9,214.893 1033.64,215.842C1034.38,216.792 1035.14,217.267 1035.91,217.267C1038.3,217.267 1040.22,216.176 1041.66,213.996C1043.1,211.815 1044.19,209.054 1044.93,205.713C1045.67,202.372 1046.16,198.714 1046.41,194.74C1046.65,190.765 1046.78,186.949 1046.78,183.291C1046.78,180.829 1046.58,177.805 1046.2,174.217C1045.81,170.63 1045.28,166.884 1044.61,162.98C1043.95,159.076 1043.17,155.189 1042.29,151.321C1041.41,147.452 1040.5,143.987 1039.55,140.927C1038.6,137.868 1037.63,135.388 1036.65,133.489C1035.66,131.59 1034.75,130.64 1033.9,130.64ZM1059.54,15.524C1055.46,25.654 1052.26,34.57 1049.94,42.272C1047.62,49.975 1045.86,56.815 1044.67,62.795C1043.47,68.774 1042.63,74.032 1042.13,78.569C1041.64,83.106 1041.15,87.309 1040.66,91.178C1044.95,83.088 1049.27,75.122 1053.64,67.279C1058,59.436 1061.94,52.155 1065.45,45.438C1068.97,38.72 1071.84,32.793 1074.05,27.658C1076.27,22.523 1077.38,18.619 1077.38,15.946C1077.38,12.218 1076.85,9.492 1075.79,7.769C1074.74,6.046 1073.3,5.184 1071.47,5.184C1068.23,5.184 1065.77,6.046 1064.08,7.769C1062.39,9.492 1060.88,12.078 1059.54,15.524Z" style="fill:rgb(169,120,69);fill-rule:nonzero;"/>
            <path d="M1124.01,177.277C1117.4,177.277 1111.62,176.081 1106.66,173.69C1101.7,171.298 1097.57,168.08 1094.26,164.035C1090.95,159.99 1088.47,155.313 1086.82,150.002C1085.17,144.691 1084.34,139.116 1084.34,133.278C1084.34,129.339 1084.73,125.171 1085.5,120.774C1086.28,116.378 1087.45,112.069 1089.04,107.849C1090.62,103.628 1092.61,99.601 1095,95.768C1097.39,91.934 1100.18,88.557 1103.38,85.638C1106.59,82.719 1110.17,80.398 1114.15,78.674C1118.12,76.951 1122.54,76.089 1127.39,76.089C1131.33,76.089 1134.99,76.722 1138.36,77.989C1141.74,79.255 1144.68,81.031 1147.17,83.317C1149.67,85.603 1151.62,88.364 1153.03,91.6C1154.44,94.836 1155.14,98.458 1155.14,102.468C1155.14,106.829 1154.07,111.19 1151.92,115.551C1149.78,119.913 1146.8,124.028 1143.01,127.897C1139.21,131.765 1134.69,135.212 1129.45,138.237C1124.21,141.262 1118.53,143.618 1112.41,145.306C1113.46,147.206 1114.5,148.788 1115.52,150.054C1116.54,151.321 1117.58,152.305 1118.63,153.009C1119.69,153.712 1120.8,154.205 1121.96,154.486C1123.12,154.767 1124.37,154.908 1125.7,154.908C1129.92,154.908 1134.37,154.064 1139.05,152.376C1143.73,150.688 1148.28,148.577 1152.71,146.045C1157.14,143.513 1161.33,140.752 1165.27,137.762C1169.21,134.773 1172.55,131.941 1175.29,129.268L1188.9,143.407C1182.71,149.808 1176.14,155.471 1169.17,160.395C1166.15,162.505 1162.89,164.58 1159.41,166.62C1155.93,168.66 1152.27,170.471 1148.44,172.054C1144.61,173.637 1140.63,174.903 1136.52,175.853C1132.4,176.802 1128.23,177.277 1124.01,177.277ZM1109.98,127.686C1112.51,127.686 1115.27,127.035 1118.26,125.734C1121.25,124.432 1124.03,122.762 1126.6,120.722C1129.17,118.682 1131.33,116.466 1133.09,114.074C1134.85,111.683 1135.73,109.361 1135.73,107.11C1135.73,103.945 1135.14,101.342 1133.98,99.302C1132.82,97.262 1131.4,96.242 1129.71,96.242C1126.69,96.242 1124.1,96.805 1121.96,97.931C1119.81,99.056 1118.02,100.516 1116.58,102.309C1115.13,104.103 1113.97,106.143 1113.09,108.429C1112.21,110.715 1111.55,113.019 1111.09,115.34C1110.63,117.662 1110.33,119.913 1110.19,122.093C1110.05,124.274 1109.98,126.138 1109.98,127.686Z" style="fill:rgb(169,120,69);fill-rule:nonzero;"/>
            <path d="M1207.05,177.277C1200.44,177.277 1194.65,176.081 1189.7,173.69C1184.74,171.298 1180.6,168.08 1177.3,164.035C1173.99,159.99 1171.51,155.313 1169.86,150.002C1168.21,144.691 1167.38,139.116 1167.38,133.278C1167.38,129.339 1167.77,125.171 1168.54,120.774C1169.31,116.378 1170.49,112.069 1172.08,107.849C1173.66,103.628 1175.64,99.601 1178.04,95.768C1180.43,91.934 1183.22,88.557 1186.42,85.638C1189.62,82.719 1193.21,80.398 1197.19,78.674C1201.16,76.951 1205.58,76.089 1210.43,76.089C1214.37,76.089 1218.03,76.722 1221.4,77.989C1224.78,79.255 1227.72,81.031 1230.21,83.317C1232.71,85.603 1234.66,88.364 1236.07,91.6C1237.48,94.836 1238.18,98.458 1238.18,102.468C1238.18,106.829 1237.11,111.19 1234.96,115.551C1232.82,119.913 1229.84,124.028 1226.05,127.897C1222.25,131.765 1217.73,135.212 1212.49,138.237C1207.25,141.262 1201.57,143.618 1195.45,145.306C1196.5,147.206 1197.54,148.788 1198.56,150.054C1199.58,151.321 1200.62,152.305 1201.67,153.009C1202.73,153.712 1203.84,154.205 1205,154.486C1206.16,154.767 1207.4,154.908 1208.74,154.908C1212.96,154.908 1217.41,154.064 1222.09,152.376C1226.77,150.688 1231.32,148.577 1235.75,146.045C1240.18,143.513 1244.37,140.752 1248.31,137.762C1252.25,134.773 1255.59,131.941 1258.33,129.268L1271.94,143.407C1265.75,149.808 1259.18,155.471 1252.21,160.395C1249.19,162.505 1245.93,164.58 1242.45,166.62C1238.97,168.66 1235.31,170.471 1231.48,172.054C1227.64,173.637 1223.67,174.903 1219.56,175.853C1215.44,176.802 1211.27,177.277 1207.05,177.277ZM1193.02,127.686C1195.55,127.686 1198.31,127.035 1201.3,125.734C1204.29,124.432 1207.07,122.762 1209.64,120.722C1212.2,118.682 1214.37,116.466 1216.13,114.074C1217.88,111.683 1218.77,109.361 1218.77,107.11C1218.77,103.945 1218.18,101.342 1217.02,99.302C1215.86,97.262 1214.44,96.242 1212.75,96.242C1209.73,96.242 1207.14,96.805 1205,97.931C1202.85,99.056 1201.06,100.516 1199.61,102.309C1198.17,104.103 1197.01,106.143 1196.13,108.429C1195.25,110.715 1194.58,113.019 1194.13,115.34C1193.67,117.662 1193.37,119.913 1193.23,122.093C1193.09,124.274 1193.02,126.138 1193.02,127.686Z" style="fill:rgb(169,120,69);fill-rule:nonzero;"/>
        </g>
        <g transform="matrix(1.11512,0,0,1.15309,-351.281,-58.0517)">
            <path d="M3439.66,213.965C3439.66,124.594 3364.64,52.036 3272.22,52.036L2550.09,52.036C2457.68,52.036 2382.65,124.594 2382.65,213.965L2382.65,318.824C2382.65,408.195 2457.68,480.753 2550.09,480.753L3272.22,480.753C3364.64,480.753 3439.66,408.195 3439.66,318.824L3439.66,213.965Z" style="fill:rgb(169,120,69);"/>
        </g>
        <g transform="matrix(1.10873,0,0,1.10873,-329.656,5.17176)">
            <text x="2461.74px" y="363.435px" style="font-family:'DINCondensed-Bold', 'DIN Condensed';font-weight:700;font-stretch:condensed;font-size:399.51px;fill:white;">SHOP</text>
        </g>
        <g transform="matrix(1,0,0,1,-2.31464,-26.0222)">
            <g transform="matrix(1.06076,-0.164128,0.0735626,0.475437,-235.418,732.42)">
                <rect x="3193.28" y="130.463" width="213.747" height="274.244" style="fill:none;stroke:white;stroke-width:12.02px;"/>
            </g>
            <g transform="matrix(1,0,0,1,2.31669,20.747)">
                <ellipse cx="3368.53" cy="400.084" rx="16.374" ry="17.629" style="fill:white;stroke:white;stroke-width:3.5px;"/>
            </g>
            <g transform="matrix(0.809085,0.145656,-0.145656,0.809085,667.518,-432.994)">
                <ellipse cx="3269.47" cy="233.764" rx="18.175" ry="18.228" style="fill:none;stroke:white;stroke-width:7.3px;"/>
            </g>
            <g transform="matrix(0.809085,0.145656,-0.145656,0.809085,697.927,-438.529)">
                <ellipse cx="3269.47" cy="233.764" rx="18.175" ry="18.228" style="fill:none;stroke:white;stroke-width:7.3px;"/>
            </g>
            <g transform="matrix(-0.329431,-0.079543,-0.158364,0.655873,4407.61,334.246)">
                <path d="M3280.15,189.189C3280.15,188.819 3279.56,188.518 3278.82,188.518L3276.15,188.518C3275.41,188.518 3274.81,188.819 3274.81,189.189L3274.81,217.16C3274.81,217.53 3275.41,217.831 3276.15,217.831L3278.82,217.831C3279.56,217.831 3280.15,217.53 3280.15,217.16L3280.15,189.189Z" style="fill:none;stroke:white;stroke-width:11.24px;"/>
            </g>
            <g transform="matrix(-2.82735,-2.104,-0.0378456,0.0508568,12558.9,7098.2)">
                <path d="M3280.15,195.846C3280.15,191.802 3280.1,188.518 3280.02,188.518L3274.94,188.518C3274.87,188.518 3274.81,191.802 3274.81,195.846L3274.81,210.503C3274.81,214.547 3274.87,217.831 3274.94,217.831L3280.02,217.831C3280.1,217.831 3280.15,214.547 3280.15,210.503L3280.15,195.846Z" style="fill:none;stroke:white;stroke-width:1.81px;"/>
            </g>
            <ellipse cx="3296.92" cy="242.8" rx="5.325" ry="4.316" style="fill:white;stroke:white;stroke-width:4.5px;"/>
            <g transform="matrix(1,0,0,1,3.03618,20.3356)">
                <ellipse cx="3216.52" cy="410.817" rx="5.713" ry="6.053" style="fill:white;stroke:white;stroke-width:3px;"/>
            </g>
            <g transform="matrix(0.28862,0.0690871,-0.225696,0.942875,2460.57,-205.053)">
                <rect x="3359.25" y="158.401" width="18.201" height="63.951" style="fill:none;stroke:white;stroke-width:8.37px;"/>
            </g>
            <g transform="matrix(0.973282,-0.142309,0.142309,0.973282,42.4285,458.698)">
                <rect x="3167.56" y="294.15" width="228.07" height="2.413" style="fill:none;stroke:white;stroke-width:6.1px;"/>
            </g>
            <g transform="matrix(0.980622,-0.139322,1.22168,8.59882,-343.64,-2077.84)">
                <rect x="3172.18" y="327.365" width="228.653" height="4.239" style="fill:white;stroke:white;stroke-width:0.97px;"/>
            </g>
            <g transform="matrix(7.68694,-1.13776,0.146526,0.989955,-22201.9,3773.17)">
                <rect x="3309.8" y="247.356" width="4.961" height="130.066" style="fill:white;stroke:white;stroke-width:1.08px;"/>
            </g>
            <g transform="matrix(0.972481,-0.142171,0.142171,0.972481,53.9206,472.713)">
                <rect x="3275.64" y="254.78" width="4.94" height="128.869" style="fill:none;stroke:white;stroke-width:6.1px;"/>
            </g>
        </g>
    </g>
</svg>
